<svg version="1" xmlns="http://www.w3.org/2000/svg" width="973.333" height="973.333" viewBox="0 0 730.000000 730.000000"><path d="M359.5 163.1c0 9.1-.4 16.3-.9 16.7-.5.3-10.5.5-22.2.5h-21.3v7.3c0 7 .1 7.4 2.2 7.5 1.2 0 11.2.1 22.2.2l20 .2v44.9c0 29.3-.3 45-1 45.2-.5.1-5.9.5-12 .8-6 .4-12.6.9-14.5 1.1-3.3.5-4.6.7-13 2-5.6.9-33.8 8-42.5 10.8-26.2 8.4-45 15.8-75.5 29.9-23.9 11.1-22.5 10.5-40.5 18.1-23.4 10-44.1 18-75.5 29.2-5.7 2-20.4 6.6-35 11-4.6 1.3-9.3 2.6-11.9 3.1-.8.2-4.6 1-8.4 2-3.8.9-11.9 2.4-18 3.3L.5 398.6v22.9l5-.1c17.5-.2 60.7-12.3 108-30.2 14.8-5.6 20.9-8 26-10.1 1.1-.5 4.5-1.9 7.5-3.1 3-1.2 6.9-2.8 8.5-3.5 1.7-.8 7.5-3.3 13-5.6s16.3-7.1 24-10.6c24.1-11.2 26.8-12.4 35.3-15.9 9.7-4.1 12.4-5.1 13.5-5.3.4 0 2-.7 3.5-1.5 7.3-3.7 51.3-17.6 61.2-19.2 1.4-.3 3.1-.7 3.8-.9 1.8-.7 13.9-2.7 25.2-4.2 5.7-.8 23.3-.9 47-.4 11.5.3 22.8 1.5 33 3.5 1.4.3 3.6.7 5 1 8.1 1.5 13.7 2.9 23.5 5.6 6.1 1.6 11.7 3.2 12.5 3.4 3.1.9 15.6 4.8 17.5 5.6 1.1.4 6.1 2.3 11 4 18.2 6.6 33.4 13 48 20.3 50.2 25 110.8 47.1 170 62.1 7.7 1.9 15.1 3.7 16.5 4 1.4.2 4.2.7 6.3 1.1l3.7.7v-24l-3.7-.7c-2.1-.4-4.7-.9-5.8-1.1-1.1-.2-9.2-2.2-18-4.5-8.8-2.2-16.7-4.2-17.5-4.4-5.9-1.4-32-9.5-47.2-14.6-35.9-12-73.6-27.5-105-43.1-38.7-19.1-97.6-38.1-128.2-41.4-3.3-.3-6.9-.8-8-1-1.2-.2-5.8-.5-10.3-.5H377l-.1-8.7c-.2-38.4.1-81.3.5-82 .3-.5 9.9-.9 21.3-1 11.4 0 22.2-.1 24-.1l3.1-.1.1-7.3.1-7.4h-24c-13.2 0-24.3-.2-24.6-.5-.3-.3-.5-7.8-.6-16.6v-16.1h-17.4l.1 16z"/><path d="M355.9 322.4c-.2.2-5.1.6-10.9 1-5.8.3-11.6.8-13 1-1.4.2-4.5.7-7 1.1-32.2 4.8-80.3 20.9-124 41.7-71.3 33.9-154.3 62.7-194.2 67.4l-5.8.6-.1 8.7c0 4.7-.2 13.1-.2 18.6l-.2 10H136v44h-15.5V530H155c19-.1 36.4-.5 38.8-1.1 10.8-2.4 19.1-8.9 23.8-18.6 3.8-7.6 4.4-19.6 1.5-27.7-1.1-3.2-2.8-6.7-3.6-7.7-1.3-1.4-1.4-1.9-.3-2.6 1-.6 1.3-4.1 1.4-13.3.2-47.4 26.9-85.9 72.4-104.4 13.8-5.6 31.7-10.4 46-12.2 2.5-.3 5.6-.7 7-1 3.5-.5 21.6-1.7 27-1.7 4.8-.1 20.2 1.3 21 1.8.3.2 2.5.6 5 .9 8.3 1.1 22.2 4.1 29.5 6.3 31.3 9.5 51.4 20.3 67.7 36.4 17.2 17.1 25.6 36.8 26.2 61.7l.3 9.2-2.4-1.5c-1.2-.8-3.3-2.2-4.6-3-8.2-5.3-26.2-5.8-36-1s-16.1 12.4-19.7 23.8c-3.7 11.5-3 30.1 1.5 38.8 1.3 2.4 1.4 3.1.4 2.7-.8-.3-7.1-2.2-14.1-4.3l-12.8-3.9v-59.5l4.8-2.7c13.9-8.1 21-13.8 25.2-20.2 3.1-4.8 3.2-8 .1-12.2-3.7-5.1-11.9-8-43.1-14.9-20.4-4.6-22.1-5.1-20.2-5.8.6-.3 1.2-1.3 1.2-2.4 0-1.8-.2-1.8-3.5-.5-2.7 1.2-4.2 1.3-6.6.4-2.6-.9-4.9-4-4.9-6.6 0-.4 3.5-.7 7.7-.7h7.8l-.2-4c-.6-10.7-15.1-11.5-18.6-1-1.2 3.4-1.2 4.7-.1 8.5.8 2.5 1.4 4.6 1.4 4.6 0 .1-2.1-.3-4.6-.9l-4.5-1.1.1-4.5c.3-8.4 0-10.1-2-12.1-2.6-2.6-7-2.6-10.4.1l-2.6 2V363h-4c-4.2 0-5.7 2.3-2.1 3.3 1.7.4 1.9 1.4 1.8 10l-.1 9.6-3-.5c-8-1.3-7.6-1-7.6-6.5 0-4.9.1-5.1 2.5-4.7 1.9.4 2.5.1 2.5-1.3 0-1.4-.7-1.9-2.5-1.9-2.1 0-2.5-.5-2.5-3 0-2.3-.4-3-2-3s-2 .7-2 3-.4 3-2 3c-2.6 0-2.6 2.6.1 3.3 1.7.5 2 1.2 1.7 4.9-.3 3.9-.5 4.3-2.8 4.1-9.3-.6-21-1.5-23.8-1.8-4.4-.5-3.2 1.1 1.5 2 7.2 1.3 25.8 6.7 28 8.1 1.2.8 3.6 1.4 5.2 1.4 3.2 0 20.3 4.8 39.9 11.1 10.6 3.5 12.2 4.3 12.3 6.2 0 1.2.1 3.8.2 5.7l.2 3.4 5.4-.3c5-.2 5.4-.1 4.1 1.4-4.6 5.5-29.1 13.9-53 18.1-1.4.2-4.7.9-7.5 1.4-2.7.6-11.5 1-19.5.9-19.4-.1-18-.3-18 2.8 0 2.7-.4 2.9-10.3 5.5-5.6 1.4-11.2 2.9-12.5 3.3-2.1.7-2.2.5-2.1-4.1.3-9.3.7-8.7-6.6-8.2-10 .9-20.1 8.2-24.1 17.5-.8 1.8-1.6 3.3-1.8 3.3-.1 0-.2-2.7-.1-5.9.2-7.2-1.5-11.8-5.1-13.1-2.3-.9-14.9-1.5-23.6-1.1-2.8.1-2.8.2-2.8 6.6 0 7.1-.5 6.7 7.5 6.7 7.6 0 7.5-.3 7.5 19.4 0 12.1-.4 18.2-1.2 19.7-.8 1.3-1.3 6.3-1.3 12.7 0 8.5-.3 10.5-1.5 10.6-.8.1-3.3.2-5.5.3l-4 .1v13h17l2.3 4.1c7.9 13.9 33.1 37.6 48.5 45.7l5.9 3.1h165c147.5-.1 164.8-.2 162.8-1.6-4.7-3.3-28.5-13.9-52.4-23.4-13.8-5.5-27.5-11-30.4-12.2l-5.3-2.2.1-34.9c0-19.3.3-35.2.6-35.5.3-.3 6.3-.6 13.4-.6h12.8l-.5 9.1c-1.4 22.4 9.4 39.9 29.2 47.4 14.9 5.6 38.2 2.2 49.7-7.3l2.7-2.2-3.5-6.2-3.5-6.2-4.2 2.9c-14.4 9.7-33.4 9-43.9-1.6-4.6-4.5-7.6-10.5-8.4-16.7l-.7-4.7H646v-14.5h41.5c40.8 0 41.6 0 42-2 .2-1.1.3-9.5.3-18.7l-.1-16.7-7.6-1.7c-4.2-.9-10.3-2.3-13.6-3.1-3.3-.8-6.4-1.6-7-1.8-26.9-6.3-75.2-21.9-108-35-26.9-10.7-32.6-13.2-59-26-9.3-4.5-21.5-10.1-27-12.3-11.8-4.8-37.2-14.2-39.9-14.8-1.1-.2-5.4-1.5-9.5-2.8-15.1-4.9-39.3-10.6-51.6-12.1-2.7-.4-6.1-.8-7.5-1.1-1.4-.2-11.2-.7-21.8-.9-10.7-.3-19.7-.7-20.1-1-.5-.2-1-.3-1.2-.1zm13.1 59.3v6.4l-4.7-.7c-6.2-.8-6.3-.9-6.3-5 0-2.6.8-4.4 2.9-6.5 2.6-2.6 3.2-2.8 5.5-1.7 2.4 1 2.6 1.6 2.6 7.5zm24.4-7.4c.8.7 1.7 2.3 2 3.5.7 2.1.5 2.2-5.2 2.2-5.6 0-6-.2-5.5-2 .6-2.3 4-5 6.1-5 .7 0 1.9.6 2.6 1.3zM273 458.5c0 .2-1 .9-2.2 1.5-2.2 1.1-2.2 1-.4-.4 2.1-1.7 2.6-1.9 2.6-1.1zm136.3 7.3c4.5 8.4 6 17.4 4.5 27-.5 3-1.1 5.9-1.4 6.4-.9 1.4-16.3-7.4-21-12-7.5-7.4-7.6-13.5-.2-19.7 4-3.4 12.6-7.5 14.3-6.9.7.3 2.4 2.6 3.8 5.2zm94.5-2.6c5.9 1.5 12.1 7.6 14.4 14.2 1.2 3.5 1.6 7.8 1.5 15.5-.2 9.6-.5 11.2-3.2 16.6-4 8-9.2 11.7-17.4 12.3-17.6 1.3-29.4-13.1-27.7-33.8.7-9 2.3-13.5 6.8-18.6 6-6.8 14.8-8.9 25.6-6.2zm-312.4 11.7c16.9 7.4 14.1 36.5-3.8 39.7-4.2.7-31.3 1.3-33.1.7-.7-.2-1-7.9-1-21 0-18.5.2-20.7 1.7-21.2.9-.3 8.5-.5 16.8-.4 12.3.2 15.9.6 19.4 2.2zm436.6-.7c0 1.7-1.8 1.8-23.4 1.8-21.8 0-23.4-.1-23-1.8.5-1.6 2.4-1.7 23.5-1.7 21.2 0 22.9.1 22.9 1.7zm-108.2 56.3c-.1 3.6-.4 6.5-.7 6.5-.3 0-2.4-.7-4.8-1.6l-4.2-1.6 4.7-4.8 4.9-4.9c.1-.1.2 2.8.1 6.4z"/><path d="M327.6 405.8c-1.4.3-1.6 1.5-1.4 9l.3 8.7h17l.3-8.8c.1-4.8-.1-8.7-.5-8.8-2.6-.3-14.2-.3-15.7-.1z"/></svg>